<?xml version="1.0" standalone="no"?>
<!DOCTYPE svg PUBLIC "-//W3C//DTD SVG 20010904//EN"
 "http://www.w3.org/TR/2001/REC-SVG-20010904/DTD/svg10.dtd">
<svg version="1.0" xmlns="http://www.w3.org/2000/svg"
 width="225.000000pt" height="225.000000pt" viewBox="0 0 225.000000 225.000000"
 preserveAspectRatio="xMidYMid meet">
<metadata>
Created by potrace 1.11, written by Peter Selinger 2001-2013
</metadata>
<g transform="translate(0.000000,225.000000) scale(0.100000,-0.100000)"
fill="#000000" stroke="none">
<path d="M503 2100 c-63 -15 -114 -61 -145 -128 -18 -40 -18 -45 -4 -68 26
-39 67 -32 130 24 30 26 69 56 88 67 24 15 34 29 36 51 5 48 -39 71 -105 54z"/>
<path d="M1005 2075 c-14 -13 -25 -28 -25 -33 0 -13 51 -62 64 -62 6 0 44 -22
84 -49 72 -49 96 -54 130 -28 40 32 -30 144 -115 183 -51 23 -110 18 -138 -11z"/>
<path d="M903 1867 c-29 -13 -69 -37 -89 -55 -41 -37 -47 -38 -65 -15 -8 9
-38 27 -67 40 -169 74 -369 -26 -412 -205 -15 -64 -8 -124 21 -193 12 -27 20
-51 18 -53 -216 -171 -274 -220 -274 -228 0 -6 66 -51 147 -100 102 -63 145
-94 140 -103 -4 -7 -47 -57 -97 -110 -87 -95 -111 -124 -103 -129 1 -2 54 -40
115 -85 62 -46 113 -85 113 -87 0 -3 -34 -46 -75 -97 -41 -50 -75 -93 -74 -97
0 -10 203 -135 216 -134 7 1 10 -3 6 -9 -11 -18 -4 -80 12 -96 8 -8 43 -26 77
-39 52 -19 89 -24 207 -29 l143 -6 -6 109 c-3 60 -8 175 -12 257 -7 167 2 155
-104 132 -107 -23 -100 -29 -100 83 1 90 -2 101 -31 157 -36 69 -35 115 2 115
15 0 26 -14 44 -54 22 -49 121 -163 133 -152 2 3 14 -4 26 -15 73 -70 341
-148 576 -170 158 -14 513 1 535 22 11 11 23 273 19 421 l-4 168 37 24 c76 48
123 117 123 183 0 59 -8 73 -52 93 -32 14 -47 15 -83 7 -25 -6 -45 -14 -45
-19 0 -4 -9 -8 -20 -8 -17 0 -20 6 -19 38 1 20 -8 58 -20 83 -17 37 -29 49
-60 59 -65 21 -120 -6 -180 -88 l-17 -24 -115 12 c-62 6 -118 11 -124 10 -5
-1 -22 -2 -37 -1 l-27 1 6 78 c8 107 -12 167 -81 237 -89 91 -214 119 -323 72z
m178 -91 c121 -50 167 -183 100 -287 -41 -65 -89 -92 -166 -93 -51 -1 -68 4
-103 27 -110 73 -126 222 -33 311 53 51 139 69 202 42z m-431 -38 c116 -59
144 -206 57 -305 -100 -114 -298 -68 -337 78 -45 164 128 304 280 227z m1410
-368 c0 -5 -7 -7 -15 -4 -8 4 -15 8 -15 10 0 2 7 4 15 4 8 0 15 -4 15 -10z
m-1710 -63 c0 -5 -4 -5 -10 -2 -5 3 -10 14 -10 23 0 15 2 15 10 2 5 -8 10 -19
10 -23z m900 29 c0 -3 -4 -8 -10 -11 -5 -3 -10 -1 -10 4 0 6 5 11 10 11 6 0
10 -2 10 -4z m827 -18 c-3 -8 -6 -5 -6 6 -1 11 2 17 5 13 3 -3 4 -12 1 -19z
m-247 8 c0 -3 -4 -8 -10 -11 -5 -3 -10 -1 -10 4 0 6 5 11 10 11 6 0 10 -2 10
-4z m71 -23 c-12 -20 -14 -14 -5 12 4 9 9 14 11 11 3 -2 0 -13 -6 -23z m-1554
-85 c-3 -8 -6 -5 -6 6 -1 11 2 17 5 13 3 -3 4 -12 1 -19z m33 -239 c0 -6 -4
-7 -10 -4 -5 3 -10 11 -10 16 0 6 5 7 10 4 6 -3 10 -11 10 -16z m300 -109 c0
-5 -5 -10 -11 -10 -5 0 -7 5 -4 10 3 6 8 10 11 10 2 0 4 -4 4 -10z m487 -316
c-3 -3 -12 -4 -19 -1 -8 3 -5 6 6 6 11 1 17 -2 13 -5z m176 -31 c-13 -2 -33
-2 -45 0 -13 2 -3 4 22 4 25 0 35 -2 23 -4z m-876 -295 c-3 -8 -6 -5 -6 6 -1
11 2 17 5 13 3 -3 4 -12 1 -19z m3 -32 c0 -3 -4 -8 -10 -11 -5 -3 -10 -1 -10
4 0 6 5 11 10 11 6 0 10 -2 10 -4z"/>
<path d="M954 1656 c-53 -45 -28 -139 40 -151 74 -14 130 52 102 120 -25 59
-93 74 -142 31z"/>
<path d="M503 1635 c-47 -33 -38 -122 16 -149 89 -46 177 69 106 139 -28 29
-88 34 -122 10z"/>
</g>
</svg>
